<svg id="wave" style="transform:rotate(0deg); transition: 0.3s" viewBox="0 0 1440 170" version="1.1" xmlns="http://www.w3.org/2000/svg"><defs><linearGradient id="sw-gradient-0" x1="0" x2="0" y1="1" y2="0"><stop stop-color="rgba(243, 106, 62, 1)" offset="0%"></stop><stop stop-color="rgba(255, 179, 11, 1)" offset="100%"></stop></linearGradient></defs><path style="transform:translate(0, 0px); opacity:1" fill="url(#sw-gradient-0)" d="M0,17L30,39.7C60,62,120,108,180,107.7C240,108,300,62,360,39.7C420,17,480,17,540,17C600,17,660,17,720,14.2C780,11,840,6,900,19.8C960,34,1020,68,1080,73.7C1140,79,1200,57,1260,39.7C1320,23,1380,11,1440,31.2C1500,51,1560,102,1620,124.7C1680,147,1740,142,1800,116.2C1860,91,1920,45,1980,39.7C2040,34,2100,68,2160,68C2220,68,2280,34,2340,36.8C2400,40,2460,79,2520,102C2580,125,2640,130,2700,130.3C2760,130,2820,125,2880,116.2C2940,108,3000,96,3060,93.5C3120,91,3180,96,3240,82.2C3300,68,3360,34,3420,19.8C3480,6,3540,11,3600,36.8C3660,62,3720,108,3780,127.5C3840,147,3900,142,3960,136C4020,130,4080,125,4140,116.2C4200,108,4260,96,4290,90.7L4320,85L4320,170L4290,170C4260,170,4200,170,4140,170C4080,170,4020,170,3960,170C3900,170,3840,170,3780,170C3720,170,3660,170,3600,170C3540,170,3480,170,3420,170C3360,170,3300,170,3240,170C3180,170,3120,170,3060,170C3000,170,2940,170,2880,170C2820,170,2760,170,2700,170C2640,170,2580,170,2520,170C2460,170,2400,170,2340,170C2280,170,2220,170,2160,170C2100,170,2040,170,1980,170C1920,170,1860,170,1800,170C1740,170,1680,170,1620,170C1560,170,1500,170,1440,170C1380,170,1320,170,1260,170C1200,170,1140,170,1080,170C1020,170,960,170,900,170C840,170,780,170,720,170C660,170,600,170,540,170C480,170,420,170,360,170C300,170,240,170,180,170C120,170,60,170,30,170L0,170Z"></path></svg>