<?xml version="1.0" standalone="no"?>
<svg xmlns:xlink="http://www.w3.org/1999/xlink" id="wave"
	style="transform:rotate(180deg); transition: 0.3s" viewBox="0 -60 1440 300" version="1.1"
	xmlns="http://www.w3.org/2000/svg">
	<defs>
		<linearGradient id="sw-gradient-0" x1="0" x2="0" y1="1" y2="0">
			<stop stop-color="rgb(255,96,3)" offset="0%" />
			<stop stop-color="#ffb834" offset="100%" />
		</linearGradient>

		<filter id="f3" x="0" y="-10%" width="100%" height="100%">
			<feOffset result="offOut" in="SourceAlpha" dx="0" dy="-10" />
			<feGaussianBlur result="blurOut" in="offOut" stdDeviation="10" />
			<feBlend in="SourceGraphic" in2="blurOut" mode="normal" />
		</filter>
	</defs>
	<path filter="url(#f3)" style="transform:translate(0, 0px); opacity:1" fill="url(#sw-gradient-0)"
		d="M0,120L34.3,104C68.6,88,137,56,206,36C274.3,16,343,8,411,28C480,48,549,96,617,128C685.7,160,754,176,823,168C891.4,160,960,128,1029,100C1097.1,72,1166,48,1234,40C1302.9,32,1371,40,1440,72C1508.6,104,1577,160,1646,176C1714.3,192,1783,168,1851,156C1920,144,1989,144,2057,124C2125.7,104,2194,64,2263,44C2331.4,24,2400,24,2469,40C2537.1,56,2606,88,2674,88C2742.9,88,2811,56,2880,44C2948.6,32,3017,40,3086,48C3154.3,56,3223,64,3291,84C3360,104,3429,136,3497,128C3565.7,120,3634,72,3703,64C3771.4,56,3840,88,3909,88C3977.1,88,4046,56,4114,56C4182.9,56,4251,88,4320,104C4388.6,120,4457,120,4526,128C4594.3,136,4663,152,4731,148C4800,144,4869,120,4903,108L4937.1,96L4937.1,240L4902.9,240C4868.6,240,4800,240,4731,240C4662.9,240,4594,240,4526,240C4457.1,240,4389,240,4320,240C4251.4,240,4183,240,4114,240C4045.7,240,3977,240,3909,240C3840,240,3771,240,3703,240C3634.3,240,3566,240,3497,240C3428.6,240,3360,240,3291,240C3222.9,240,3154,240,3086,240C3017.1,240,2949,240,2880,240C2811.4,240,2743,240,2674,240C2605.7,240,2537,240,2469,240C2400,240,2331,240,2263,240C2194.3,240,2126,240,2057,240C1988.6,240,1920,240,1851,240C1782.9,240,1714,240,1646,240C1577.1,240,1509,240,1440,240C1371.4,240,1303,240,1234,240C1165.7,240,1097,240,1029,240C960,240,891,240,823,240C754.3,240,686,240,617,240C548.6,240,480,240,411,240C342.9,240,274,240,206,240C137.1,240,69,240,34,240L0,240Z" />
	<path style="transform:translate(0, 0px); opacity:1" fill="url(#sw-gradient-0)"
		d="M0,120L34.3,104C68.6,88,137,56,206,36C274.3,16,343,8,411,28C480,48,549,96,617,128C685.7,160,754,176,823,168C891.4,160,960,128,1029,100C1097.1,72,1166,48,1234,40C1302.9,32,1371,40,1440,72C1508.6,104,1577,160,1646,176C1714.3,192,1783,168,1851,156C1920,144,1989,144,2057,124C2125.7,104,2194,64,2263,44C2331.4,24,2400,24,2469,40C2537.1,56,2606,88,2674,88C2742.9,88,2811,56,2880,44C2948.6,32,3017,40,3086,48C3154.3,56,3223,64,3291,84C3360,104,3429,136,3497,128C3565.7,120,3634,72,3703,64C3771.4,56,3840,88,3909,88C3977.1,88,4046,56,4114,56C4182.9,56,4251,88,4320,104C4388.6,120,4457,120,4526,128C4594.3,136,4663,152,4731,148C4800,144,4869,120,4903,108L4937.1,96L4937.1,240L4902.9,240C4868.6,240,4800,240,4731,240C4662.9,240,4594,240,4526,240C4457.1,240,4389,240,4320,240C4251.4,240,4183,240,4114,240C4045.7,240,3977,240,3909,240C3840,240,3771,240,3703,240C3634.3,240,3566,240,3497,240C3428.6,240,3360,240,3291,240C3222.9,240,3154,240,3086,240C3017.1,240,2949,240,2880,240C2811.4,240,2743,240,2674,240C2605.7,240,2537,240,2469,240C2400,240,2331,240,2263,240C2194.3,240,2126,240,2057,240C1988.6,240,1920,240,1851,240C1782.9,240,1714,240,1646,240C1577.1,240,1509,240,1440,240C1371.4,240,1303,240,1234,240C1165.7,240,1097,240,1029,240C960,240,891,240,823,240C754.3,240,686,240,617,240C548.6,240,480,240,411,240C342.9,240,274,240,206,240C137.1,240,69,240,34,240L0,240Z" />

</svg>