<?xml version="1.0" standalone="no"?>
<svg xmlns:xlink="http://www.w3.org/1999/xlink" id="wave2"
	style="transform:rotate(180deg); transition: 0.3s" viewBox="0 -60 1440 300" version="1.1"
	xmlns="http://www.w3.org/2000/svg">
	<defs>
		<linearGradient id="sw-gradient-0" x1="0" x2="0" y1="1" y2="0">
			<stop stop-color="rgba(149, 53, 109, 1)" offset="0%"></stop>
			<stop stop-color="rgba(65, 201, 243, 0.69)" offset="100%"></stop>
		</linearGradient>
	</defs>
	<path style="transform:translate(0, 0px); opacity:1" fill="url(#sw-gradient-0)"
		d="M0,16L10.4,18.7C20.9,21,42,27,63,34.7C83.5,43,104,53,125,50.7C146.1,48,167,32,188,37.3C208.7,43,230,69,250,69.3C271.3,69,292,43,313,29.3C333.9,16,355,16,376,32C396.5,48,417,80,438,96C459.1,112,480,112,501,117.3C521.7,123,543,133,563,138.7C584.3,144,605,144,626,128C647,112,668,80,689,58.7C709.6,37,730,27,751,34.7C772.2,43,793,69,814,77.3C834.8,85,856,75,877,66.7C897.4,59,918,53,939,53.3C960,53,981,59,1002,56C1022.6,53,1043,43,1064,48C1085.2,53,1106,75,1127,90.7C1147.8,107,1169,117,1190,101.3C1210.4,85,1231,43,1252,24C1273,5,1294,11,1315,26.7C1335.7,43,1357,69,1377,82.7C1398.3,96,1419,96,1440,88C1460.9,80,1482,64,1492,56L1502.6,48L1502.6,160L1492.2,160C1481.7,160,1461,160,1440,160C1419.1,160,1398,160,1377,160C1356.5,160,1336,160,1315,160C1293.9,160,1273,160,1252,160C1231.3,160,1210,160,1190,160C1168.7,160,1148,160,1127,160C1106.1,160,1085,160,1064,160C1043.5,160,1023,160,1002,160C980.9,160,960,160,939,160C918.3,160,897,160,877,160C855.7,160,835,160,814,160C793,160,772,160,751,160C730.4,160,710,160,689,160C667.8,160,647,160,626,160C605.2,160,584,160,563,160C542.6,160,522,160,501,160C480,160,459,160,438,160C417.4,160,397,160,376,160C354.8,160,334,160,313,160C292.2,160,271,160,250,160C229.6,160,209,160,188,160C167,160,146,160,125,160C104.3,160,83,160,63,160C41.7,160,21,160,10,160L0,160Z">
	</path>
	<defs>
		<linearGradient id="sw-gradient-1" x1="0" x2="0" y1="1" y2="0">
			<stop stop-color="rgba(9.907, 26.738, 174.388, 0.25)" offset="0%"></stop>
			<stop stop-color="rgba(0, 250.681, 255, 0.57)" offset="100%"></stop>
		</linearGradient>
	</defs>
	<path style="transform:translate(0px,0px); opacity:0.9" fill="url(#sw-gradient-1)"
		d="M0,48L10.4,53.3C20.9,59,42,69,63,61.3C83.5,53,104,27,125,26.7C146.1,27,167,53,188,61.3C208.7,69,230,59,250,64C271.3,69,292,91,313,90.7C333.9,91,355,69,376,66.7C396.5,64,417,80,438,80C459.1,80,480,64,501,56C521.7,48,543,48,563,42.7C584.3,37,605,27,626,29.3C647,32,668,48,689,56C709.6,64,730,64,751,56C772.2,48,793,32,814,42.7C834.8,53,856,91,877,112C897.4,133,918,139,939,141.3C960,144,981,144,1002,120C1022.6,96,1043,48,1064,42.7C1085.2,37,1106,75,1127,85.3C1147.8,96,1169,80,1190,72C1210.4,64,1231,64,1252,74.7C1273,85,1294,107,1315,101.3C1335.7,96,1357,64,1377,64C1398.3,64,1419,96,1440,112C1460.9,128,1482,128,1492,128L1502.6,128L1502.6,160L1492.2,160C1481.7,160,1461,160,1440,160C1419.1,160,1398,160,1377,160C1356.5,160,1336,160,1315,160C1293.9,160,1273,160,1252,160C1231.3,160,1210,160,1190,160C1168.7,160,1148,160,1127,160C1106.1,160,1085,160,1064,160C1043.5,160,1023,160,1002,160C980.9,160,960,160,939,160C918.3,160,897,160,877,160C855.7,160,835,160,814,160C793,160,772,160,751,160C730.4,160,710,160,689,160C667.8,160,647,160,626,160C605.2,160,584,160,563,160C542.6,160,522,160,501,160C480,160,459,160,438,160C417.4,160,397,160,376,160C354.8,160,334,160,313,160C292.2,160,271,160,250,160C229.6,160,209,160,188,160C167,160,146,160,125,160C104.3,160,83,160,63,160C41.7,160,21,160,10,160L0,160Z">
	</path>
</svg>